NFP 09-04-14.ufo
<glyph name="G" format="1">
  <advance width="710"/>
  <unicode hex="0047"/>
  <outline>
    <contour>
      <point x="546" y="443" type="line"/>
      <point x="520" y="535"/>
      <point x="454" y="591"/>
      <point x="369" y="591" type="curve" smooth="yes"/>
      <point x="245" y="591"/>
      <point x="161" y="470"/>
      <point x="161" y="341" type="curve" smooth="yes"/>
      <point x="161" y="212"/>
      <point x="231" y="94"/>
      <point x="377" y="94" type="curve"/>
      <point x="458.44973545" y="94.0"/>
      <point x="556.0" y="135.0"/>
      <point x="556" y="267" type="curve"/>
      <point x="627" y="267" type="line"/>
      <point x="636.0" y="114.0"/>
      <point x="559" y="-10"/>
      <point x="373" y="-10" type="curve"/>
      <point x="170" y="-10"/>
      <point x="43.0" y="124.0"/>
      <point x="43" y="337" type="curve" smooth="yes"/>
      <point x="43" y="565"/>
      <point x="194" y="695"/>
      <point x="369" y="695" type="curve" smooth="yes"/>
      <point x="496" y="695"/>
      <point x="615" y="622"/>
      <point x="653" y="493" type="curve"/>
    </contour>
    <contour>
      <point x="655" y="267" type="line"/>
      <point x="392" y="267" type="line"/>
      <point x="392" y="361" type="line"/>
      <point x="655" y="361" type="line"/>
    </contour>
    <contour>
      <point x="581" y="0" type="line"/>
      <point x="546" y="361" type="line"/>
      <point x="655" y="361" type="line"/>
      <point x="655" y="0" type="line"/>
    </contour>
  </outline>
</glyph>
<glyph name="H" format="1">
  <advance width="704"/>
  <unicode hex="0048"/>
  <outline>
    <contour>
      <point x="624" y="300" type="line"/>
      <point x="80" y="300" type="line"/>
      <point x="80" y="404" type="line"/>
      <point x="624" y="404" type="line"/>
    </contour>
    <contour>
      <point x="515" y="0" type="line"/>
      <point x="515" y="685" type="line"/>
      <point x="624" y="685" type="line"/>
      <point x="624" y="0" type="line"/>
    </contour>
    <contour>
      <point x="80" y="0" type="line"/>
      <point x="80" y="685" type="line"/>
      <point x="189" y="685" type="line"/>
      <point x="189" y="0" type="line"/>
    </contour>
  </outline>
</glyph>
<glyph name="N" format="1">
  <advance width="724"/>
  <unicode hex="004E"/>
  <outline>
    <contour>
      <point x="514" y="0" type="line"/>
      <point x="90" y="685" type="line"/>
      <point x="217" y="685" type="line"/>
      <point x="634" y="0" type="line"/>
    </contour>
    <contour>
      <point x="525" y="0" type="line"/>
      <point x="525" y="685" type="line"/>
      <point x="634" y="685" type="line"/>
      <point x="634" y="0" type="line"/>
    </contour>
    <contour>
      <point x="90" y="0" type="line"/>
      <point x="90" y="685" type="line"/>
      <point x="199" y="685" type="line"/>
      <point x="199" y="0" type="line"/>
    </contour>
  </outline>
</glyph>
<glyph name="c" format="1">
  <advance width="515"/>
  <unicode hex="0063"/>
  <outline>
    <contour>
      <point x="399" y="322" type="line"/>
      <point x="382" y="385"/>
      <point x="336" y="424"/>
      <point x="276" y="424" type="curve" smooth="yes"/>
      <point x="192" y="424"/>
      <point x="139" y="340"/>
      <point x="139" y="248" type="curve" smooth="yes"/>
      <point x="139" y="159"/>
      <point x="177" y="77"/>
      <point x="283" y="77" type="curve" smooth="yes"/>
      <point x="339" y="77"/>
      <point x="384" y="120"/>
      <point x="405" y="169" type="curve"/>
      <point x="492" y="132" type="line"/>
      <point x="452" y="44"/>
      <point x="371" y="-10"/>
      <point x="283" y="-10" type="curve" smooth="yes"/>
      <point x="154" y="-10"/>
      <point x="39" y="61"/>
      <point x="39" y="245" type="curve" smooth="yes"/>
      <point x="39" y="414"/>
      <point x="152" y="510"/>
      <point x="276" y="510" type="curve" smooth="yes"/>
      <point x="372" y="510"/>
      <point x="462" y="454"/>
      <point x="490" y="360" type="curve"/>
    </contour>
  </outline>
</glyph>
<glyph name="e" format="1">
  <advance width="532"/>
  <unicode hex="0065"/>
  <outline>
    <contour>
      <point x="94" y="304" type="line"/>
      <point x="436" y="304" type="line"/>
      <point x="436" y="222" type="line"/>
      <point x="94" y="222" type="line"/>
    </contour>
    <contour>
      <point x="389" y="222" type="line"/>
      <point x="389" y="334"/>
      <point x="365.296296296" y="431.0"/>
      <point x="261" y="431" type="curve" smooth="yes"/>
      <point x="176.333333333" y="431.0"/>
      <point x="134" y="356"/>
      <point x="134" y="248" type="curve" smooth="yes"/>
      <point x="134" y="153"/>
      <point x="181" y="72"/>
      <point x="280" y="72" type="curve" smooth="yes"/>
      <point x="339" y="73"/>
      <point x="390" y="116"/>
      <point x="413" y="162" type="curve"/>
      <point x="497" y="125" type="line"/>
      <point x="462" y="39"/>
      <point x="365" y="-9"/>
      <point x="280" y="-10" type="curve" smooth="yes"/>
      <point x="143" y="-12"/>
      <point x="39" y="66"/>
      <point x="39" y="248" type="curve"/>
      <point x="39" y="419"/>
      <point x="135.339622642" y="510.0"/>
      <point x="261" y="510" type="curve" smooth="yes"/>
      <point x="394.818181818" y="510.0"/>
      <point x="491" y="443"/>
      <point x="491" y="222" type="curve"/>
    </contour>
  </outline>
</glyph>
<glyph name="f" format="1">
  <advance width="325"/>
  <unicode hex="0066"/>
  <outline>
    <contour>
      <point x="209" y="0" type="line"/>
      <point x="107" y="0" type="line"/>
      <point x="107" y="565" type="line" smooth="yes"/>
      <point x="107" y="652"/>
      <point x="171" y="716"/>
      <point x="307" y="676" type="curve"/>
      <point x="302" y="579" type="line"/>
      <point x="248" y="600"/>
      <point x="209" y="581"/>
      <point x="209" y="539" type="curve" smooth="yes"/>
    </contour>
    <contour>
      <point x="23" y="418" type="line"/>
      <point x="23" y="500" type="line"/>
      <point x="307" y="500" type="line"/>
      <point x="307" y="418" type="line"/>
    </contour>
  </outline>
</glyph>
<glyph name="g" format="1">
  <advance width="552"/>
  <unicode hex="0067"/>
  <outline>
    <contour>
      <point x="528" y="397" type="line"/>
      <point x="471" y="428"/>
      <point x="418" y="395"/>
      <point x="418" y="311" type="curve"/>
      <point x="382" y="324" type="line"/>
      <point x="402" y="460"/>
      <point x="469" y="538"/>
      <point x="555" y="476" type="curve"/>
    </contour>
    <contour>
      <point x="199" y="196" type="line"/>
      <point x="183" y="178"/>
      <point x="147" y="164"/>
      <point x="147" y="143" type="curve"/>
      <point x="147" y="37"/>
      <point x="503" y="155"/>
      <point x="503" y="-47" type="curve" smooth="yes"/>
      <point x="503" y="-136"/>
      <point x="405" y="-198"/>
      <point x="278" y="-198" type="curve" smooth="yes"/>
      <point x="92" y="-198"/>
      <point x="44" y="-132"/>
      <point x="44" y="-67" type="curve" smooth="yes"/>
      <point x="44" y="-4"/>
      <point x="106" y="58"/>
      <point x="170" y="58" type="curve" smooth="yes"/>
      <point x="167" y="58"/>
      <point x="167" y="64"/>
      <point x="167" y="64" type="curve"/>
      <point x="207" y="44" type="line"/>
      <point x="178" y="28"/>
      <point x="138" y="-4"/>
      <point x="138" y="-35" type="curve" smooth="yes"/>
      <point x="138" y="-76"/>
      <point x="174" y="-118"/>
      <point x="278" y="-118" type="curve" smooth="yes"/>
      <point x="350" y="-118"/>
      <point x="393" y="-80"/>
      <point x="391" y="-47" type="curve"/>
      <point x="391" y="40"/>
      <point x="46" y="-38"/>
      <point x="46" y="123" type="curve" smooth="yes"/>
      <point x="46" y="178"/>
      <point x="91" y="203"/>
      <point x="163" y="231" type="curve"/>
    </contour>
    <contour>
      <point x="72" y="336" type="line"/>
      <point x="72" y="336"/>
      <point x="72" y="336"/>
      <point x="72" y="336" type="curve" smooth="yes"/>
      <point x="72" y="434"/>
      <point x="160" y="504"/>
      <point x="258" y="504" type="curve" smooth="yes"/>
      <point x="357" y="504"/>
      <point x="445" y="434"/>
      <point x="445" y="336" type="curve" smooth="yes"/>
      <point x="445" y="241"/>
      <point x="357" y="173"/>
      <point x="258" y="173" type="curve" smooth="yes"/>
      <point x="160" y="173"/>
      <point x="72" y="241"/>
      <point x="72" y="336" type="curve"/>
      <point x="167" y="336" type="line"/>
      <point x="167" y="293"/>
      <point x="203" y="247"/>
      <point x="258" y="247" type="curve" smooth="yes"/>
      <point x="314" y="247"/>
      <point x="349" y="293"/>
      <point x="349" y="336" type="curve" smooth="yes"/>
      <point x="349" y="379"/>
      <point x="314" y="425"/>
      <point x="258" y="425" type="curve" smooth="yes"/>
      <point x="203" y="425"/>
      <point x="167" y="379"/>
      <point x="167" y="336" type="curve" smooth="yes"/>
      <point x="167" y="336"/>
      <point x="167" y="336"/>
      <point x="167" y="336" type="curve"/>
    </contour>
  </outline>
</glyph>
<glyph name="h" format="1">
  <advance width="530"/>
  <unicode hex="0068"/>
  <outline>
    <contour>
      <point x="55" y="0" type="line"/>
      <point x="55" y="685" type="line"/>
      <point x="157" y="685" type="line"/>
      <point x="157" y="0" type="line"/>
    </contour>
    <contour>
      <point x="373" y="0" type="line"/>
      <point x="373" y="333" type="line" smooth="yes"/>
      <point x="373" y="378"/>
      <point x="343" y="415"/>
      <point x="285" y="415" type="curve" smooth="yes"/>
      <point x="220" y="415"/>
      <point x="157" y="372"/>
      <point x="157" y="284" type="curve"/>
      <point x="111" y="284" type="line"/>
      <point x="111" y="440"/>
      <point x="216" y="510"/>
      <point x="303" y="510" type="curve"/>
      <point x="409" y="510"/>
      <point x="475" y="438"/>
      <point x="475" y="359" type="curve" smooth="yes"/>
      <point x="475" y="0" type="line"/>
    </contour>
  </outline>
</glyph>
<glyph name="y" format="1">
  <advance width="488"/>
  <unicode hex="0079"/>
  <outline>
    <contour>
      <point x="288" y="0" type="line" smooth="yes"/>
      <point x="267" y="-63"/>
      <point x="220" y="-166"/>
      <point x="100" y="-166" type="curve" smooth="yes"/>
      <point x="75" y="-166"/>
      <point x="47" y="-160"/>
      <point x="21" y="-140" type="curve"/>
      <point x="46" y="-48" type="line"/>
      <point x="67" y="-56"/>
      <point x="86" y="-60"/>
      <point x="102" y="-60" type="curve" smooth="yes"/>
      <point x="155" y="-60"/>
      <point x="184" y="-21"/>
      <point x="191" y="0" type="curve" smooth="yes"/>
      <point x="358" y="500" type="line"/>
      <point x="460" y="500" type="line"/>
    </contour>
    <contour>
      <point x="191" y="0" type="line"/>
      <point x="10" y="500" type="line"/>
      <point x="112" y="500" type="line"/>
      <point x="278" y="0" type="line"/>
    </contour>
  </outline>
</glyph>
<glyph name="guillemotleft" format="1">
  <advance width="665"/>
  <unicode hex="00AB"/>
  <outline>
    <contour>
      <point x="288" y="-29" type="line"/>
      <point x="356" y="39" type="line"/>
      <point x="122" y="273" type="line"/>
      <point x="330" y="481" type="line"/>
      <point x="262" y="549" type="line"/>
      <point x="-4" y="274" type="line"/>
    </contour>
    <contour>
      <point x="534" y="-29" type="line"/>
      <point x="602" y="39" type="line"/>
      <point x="368" y="273" type="line"/>
      <point x="576" y="481" type="line"/>
      <point x="508" y="549" type="line"/>
      <point x="241" y="273" type="line"/>
    </contour>
  </outline>
</glyph>
<glyph name="ae" format="1">
  <advance width="891"/>
  <unicode hex="00E6"/>
  <outline>
    <contour>
      <point x="65" y="383" type="line"/>
      <point x="120" y="476"/>
      <point x="193" y="505"/>
      <point x="288" y="505" type="curve" smooth="yes"/>
      <point x="398" y="505"/>
      <point x="501" y="460"/>
      <point x="495" y="320" type="curve"/>
      <point x="490" y="138" type="line"/>
      <point x="397" y="246" type="line"/>
      <point x="399" y="324" type="line" smooth="yes"/>
      <point x="401" y="396"/>
      <point x="341" y="418"/>
      <point x="282" y="418" type="curve"/>
      <point x="222" y="418"/>
      <point x="174" y="398"/>
      <point x="138" y="347" type="curve"/>
    </contour>
    <contour>
      <point x="436" y="227" type="line"/>
      <point x="347" y="235"/>
      <point x="153" y="237"/>
      <point x="153" y="145" type="curve" smooth="yes"/>
      <point x="153" y="99"/>
      <point x="182" y="71"/>
      <point x="224" y="71" type="curve" smooth="yes"/>
      <point x="304" y="71"/>
      <point x="382" y="137"/>
      <point x="409" y="204" type="curve"/>
      <point x="457" y="191" type="line"/>
      <point x="418" y="92"/>
      <point x="365" y="-13"/>
      <point x="224" y="-13" type="curve" smooth="yes"/>
      <point x="134" y="-13"/>
      <point x="48" y="27"/>
      <point x="48" y="141" type="curve" smooth="yes"/>
      <point x="48" y="278"/>
      <point x="255" y="321"/>
      <point x="444" y="303" type="curve"/>
    </contour>
    <contour>
      <point x="453" y="304" type="line"/>
      <point x="795" y="304" type="line"/>
      <point x="795" y="222" type="line"/>
      <point x="453" y="222" type="line"/>
    </contour>
    <contour>
      <point x="748" y="222" type="line"/>
      <point x="748" y="334"/>
      <point x="724" y="431"/>
      <point x="620" y="431" type="curve" smooth="yes"/>
      <point x="535" y="431"/>
      <point x="493" y="356"/>
      <point x="493" y="248" type="curve" smooth="yes"/>
      <point x="493" y="153"/>
      <point x="540" y="72"/>
      <point x="639" y="72" type="curve" smooth="yes"/>
      <point x="698" y="73"/>
      <point x="749" y="116"/>
      <point x="772" y="162" type="curve"/>
      <point x="856" y="125" type="line"/>
      <point x="821" y="39"/>
      <point x="724" y="-9"/>
      <point x="639" y="-10" type="curve" smooth="yes"/>
      <point x="502" y="-12"/>
      <point x="398" y="66"/>
      <point x="398" y="248" type="curve"/>
      <point x="398" y="419"/>
      <point x="494" y="510"/>
      <point x="620" y="510" type="curve" smooth="yes"/>
      <point x="754" y="510"/>
      <point x="850" y="443"/>
      <point x="850" y="222" type="curve"/>
    </contour>
  </outline>
</glyph>
<glyph name="oe" format="1">
  <advance width="915"/>
  <unicode hex="0153"/>
  <outline>
    <contour>
      <point x="282" y="77" type="curve"/>
      <point x="372" y="77"/>
      <point x="422" y="146"/>
      <point x="422" y="249" type="curve" smooth="yes"/>
      <point x="422" y="352"/>
      <point x="372" y="422"/>
      <point x="282" y="422" type="curve"/>
      <point x="192" y="422"/>
      <point x="142" y="352"/>
      <point x="142" y="249" type="curve" smooth="yes"/>
      <point x="142" y="146"/>
      <point x="192" y="77"/>
    </contour>
    <contour>
      <point x="282" y="-10" type="curve" smooth="yes"/>
      <point x="145" y="-10"/>
      <point x="30" y="88"/>
      <point x="30" y="249" type="curve" smooth="yes"/>
      <point x="30" y="410"/>
      <point x="150" y="510"/>
      <point x="282" y="510" type="curve" smooth="yes"/>
      <point x="373" y="510"/>
      <point x="458" y="463"/>
      <point x="502" y="381" type="curve"/>
      <point x="518" y="150" type="line"/>
      <point x="481" y="49"/>
      <point x="388" y="-10"/>
    </contour>
    <contour>
      <point x="477" y="304" type="line"/>
      <point x="819" y="304" type="line"/>
      <point x="819" y="222" type="line"/>
      <point x="477" y="222" type="line"/>
    </contour>
    <contour>
      <point x="772" y="222" type="line"/>
      <point x="772" y="334"/>
      <point x="748" y="431"/>
      <point x="644" y="431" type="curve" smooth="yes"/>
      <point x="559" y="431"/>
      <point x="517" y="356"/>
      <point x="517" y="248" type="curve" smooth="yes"/>
      <point x="517" y="153"/>
      <point x="564" y="72"/>
      <point x="663" y="72" type="curve" smooth="yes"/>
      <point x="722" y="73"/>
      <point x="773" y="116"/>
      <point x="796" y="162" type="curve"/>
      <point x="880" y="125" type="line"/>
      <point x="845" y="39"/>
      <point x="748" y="-9"/>
      <point x="663" y="-10" type="curve" smooth="yes"/>
      <point x="526" y="-12"/>
      <point x="422" y="66"/>
      <point x="422" y="248" type="curve"/>
      <point x="422" y="419"/>
      <point x="518" y="510"/>
      <point x="644" y="510" type="curve" smooth="yes"/>
      <point x="778" y="510"/>
      <point x="874" y="443"/>
      <point x="874" y="222" type="curve"/>
    </contour>
  </outline>
</glyph>
<glyph name="v_a" format="1">
  <advance width="754"/>
  <unicode hex="0905"/>
  <outline>
    <contour>
      <point x="259" y="384" type="line"/>
      <point x="259" y="384"/>
      <point x="463" y="319"/>
      <point x="615" y="404" type="curve"/>
      <point x="653" y="330" type="line"/>
      <point x="471" y="231"/>
      <point x="237" y="328"/>
      <point x="237" y="329" type="curve"/>
    </contour>
    <contour>
      <point x="206" y="310" type="curve"/>
      <point x="206" y="389" type="line"/>
      <point x="351" y="389"/>
      <point x="459" y="318"/>
      <point x="459" y="194" type="curve"/>
      <point x="459" y="54"/>
      <point x="366" y="-6"/>
      <point x="242" y="-5" type="curve" smooth="yes"/>
      <point x="122" y="-4"/>
      <point x="54" y="65"/>
      <point x="36" y="131" type="curve"/>
      <point x="115" y="166" type="line"/>
      <point x="133" y="117"/>
      <point x="186" y="78"/>
      <point x="242" y="77" type="curve" smooth="yes"/>
      <point x="324" y="77"/>
      <point x="364" y="126"/>
      <point x="364" y="186" type="curve" smooth="yes"/>
      <point x="364" y="258"/>
      <point x="312" y="310"/>
    </contour>
    <contour>
      <point x="206" y="393" type="line"/>
      <point x="292" y="393"/>
      <point x="333" y="434"/>
      <point x="333" y="491" type="curve" smooth="yes"/>
      <point x="333" y="555"/>
      <point x="298" y="608"/>
      <point x="225" y="608" type="curve" smooth="yes"/>
      <point x="176" y="607"/>
      <point x="131" y="571"/>
      <point x="115" y="519" type="curve"/>
      <point x="39" y="552" type="line"/>
      <point x="60" y="641"/>
      <point x="152" y="689"/>
      <point x="225" y="690" type="curve" smooth="yes"/>
      <point x="344" y="692"/>
      <point x="427" y="622"/>
      <point x="427" y="491" type="curve"/>
      <point x="427" y="375"/>
      <point x="332" y="310"/>
      <point x="206" y="310" type="curve"/>
    </contour>
    <component base="kana" xOffset="512"/>
  </outline>
</glyph>
<glyph name="v_u" format="1">
  <advance width="534"/>
  <unicode hex="0909"/>
  <outline>
    <contour>
      <point x="236" y="393" type="line"/>
      <point x="322" y="393"/>
      <point x="363" y="434"/>
      <point x="363" y="491" type="curve" smooth="yes"/>
      <point x="363" y="552"/>
      <point x="328" y="603"/>
      <point x="255" y="603" type="curve"/>
      <point x="255" y="685" type="line"/>
      <point x="374" y="687"/>
      <point x="457" y="619"/>
      <point x="457" y="491" type="curve"/>
      <point x="457" y="375"/>
      <point x="362" y="310"/>
      <point x="236" y="310" type="curve"/>
    </contour>
    <contour>
      <point x="236" y="310" type="curve"/>
      <point x="236" y="389" type="line"/>
      <point x="381" y="389"/>
      <point x="489" y="318"/>
      <point x="489" y="194" type="curve"/>
      <point x="489" y="54"/>
      <point x="396" y="-6"/>
      <point x="272" y="-5" type="curve" smooth="yes"/>
      <point x="152" y="-4"/>
      <point x="84" y="65"/>
      <point x="66" y="131" type="curve"/>
      <point x="145" y="166" type="line"/>
      <point x="163" y="117"/>
      <point x="216" y="78"/>
      <point x="272" y="77" type="curve" smooth="yes"/>
      <point x="354" y="77"/>
      <point x="394" y="126"/>
      <point x="394" y="186" type="curve" smooth="yes"/>
      <point x="394" y="258"/>
      <point x="342" y="310"/>
    </contour>
    <component base="component_6" xOffset="251"/>
    <component base="component_6"/>
  </outline>
</glyph>
<glyph name="v_uu" format="1">
  <advance width="852"/>
  <unicode hex="090A"/>
  <outline>
    <contour>
      <point x="445" y="427" type="line"/>
      <point x="566" y="320"/>
      <point x="669" y="387"/>
      <point x="669" y="476" type="curve"/>
      <point x="669" y="470"/>
      <point x="683" y="488"/>
      <point x="677" y="488" type="curve" smooth="yes"/>
      <point x="661" y="488"/>
      <point x="668" y="419"/>
      <point x="665" y="414" type="curve"/>
      <point x="579" y="470" type="line"/>
      <point x="587" y="518"/>
      <point x="633" y="570"/>
      <point x="688" y="570" type="curve"/>
      <point x="721" y="570"/>
      <point x="781" y="548"/>
      <point x="781" y="476" type="curve" smooth="yes"/>
      <point x="781" y="335"/>
      <point x="540" y="193"/>
      <point x="388" y="382" type="curve"/>
    </contour>
    <contour>
      <point x="639" y="531" type="line"/>
      <point x="753.908296943" y="447.967741935"/>
      <point x="862" y="396"/>
      <point x="862" y="271" type="curve" smooth="yes"/>
      <point x="862" y="113"/>
      <point x="715" y="30"/>
      <point x="564" y="67" type="curve"/>
      <point x="580" y="147" type="line"/>
      <point x="686" y="124"/>
      <point x="772" y="189"/>
      <point x="772" y="264" type="curve"/>
      <point x="772" y="362"/>
      <point x="670.165829146" y="406.4296875"/>
      <point x="579" y="470" type="curve"/>
    </contour>
    <contour>
      <point x="453" y="341" type="line"/>
      <point x="137" y="134" type="line"/>
      <point x="86" y="207" type="line"/>
      <point x="402" y="414" type="line"/>
    </contour>
    <component base="component_3" xOffset="-410" yOffset="-293"/>
    <component base="component_6" xOffset="284"/>
    <component base="component_6"/>
    <component base="component_6" xOffset="568"/>
    <component base="l" xOffset="327"/>
  </outline>
</glyph>
<glyph name="v_ee" format="1">
  <advance width="614"/>
  <unicode hex="090F"/>
  <outline>
    <contour>
      <point x="536" y="683" type="line"/>
      <point x="536" y="510" type="line"/>
      <point x="536" y="370"/>
      <point x="487" y="274"/>
      <point x="398" y="204" type="curve"/>
      <point x="336" y="284" type="line"/>
      <point x="399" y="338"/>
      <point x="434" y="401"/>
      <point x="434" y="510" type="curve"/>
      <point x="434" y="685" type="line"/>
    </contour>
    <contour>
      <point x="180" y="683" type="line"/>
      <point x="180" y="436" type="line"/>
      <point x="180.0" y="212.994845361"/>
      <point x="270" y="101"/>
      <point x="426" y="22" type="curve"/>
      <point x="386" y="-74" type="line"/>
      <point x="194" y="19"/>
      <point x="78.0" y="175.731404959"/>
      <point x="78" y="436" type="curve"/>
      <point x="78" y="683" type="line"/>
    </contour>
    <component base="component_6" xOffset="184"/>
    <component base="component_6" xOffset="330"/>
    <component base="component_6"/>
  </outline>
</glyph>
<glyph name="quoteleft" format="1">
  <advance width="202"/>
  <unicode hex="2018"/>
  <outline>
    <contour>
      <point x="104" y="553" type="line"/>
      <point x="98" y="603"/>
      <point x="117" y="633"/>
      <point x="153" y="654" type="curve"/>
      <point x="131" y="685" type="line"/>
      <point x="86" y="657"/>
      <point x="57" y="621"/>
      <point x="55" y="553" type="curve"/>
      <point x="55" y="438" type="line"/>
      <point x="157" y="438" type="line"/>
      <point x="157" y="553" type="line"/>
    </contour>
  </outline>
</glyph>
<glyph name="quotedblbase" format="1">
  <advance width="365"/>
  <unicode hex="201E"/>
  <outline>
    <contour>
      <point x="261" y="0" type="line"/>
      <point x="267" y="-50"/>
      <point x="248" y="-80"/>
      <point x="212" y="-101" type="curve"/>
      <point x="234" y="-132" type="line"/>
      <point x="279" y="-104"/>
      <point x="308" y="-68"/>
      <point x="310" y="0" type="curve"/>
      <point x="310" y="115" type="line"/>
      <point x="208" y="115" type="line"/>
      <point x="208" y="0" type="line"/>
    </contour>
    <contour>
      <point x="108" y="0" type="line"/>
      <point x="114" y="-50"/>
      <point x="95" y="-80"/>
      <point x="59" y="-101" type="curve"/>
      <point x="81" y="-132" type="line"/>
      <point x="126" y="-104"/>
      <point x="155" y="-68"/>
      <point x="157" y="0" type="curve"/>
      <point x="157" y="115" type="line"/>
      <point x="55" y="115" type="line"/>
      <point x="55" y="0" type="line"/>
    </contour>
  </outline>
</glyph>
<glyph name="component_1" format="1">
  <advance width="265"/>
  <outline>
    <contour>
      <point x="89" y="685" type="line"/>
      <point x="89" y="753"/>
      <point x="25.963190184" y="780.0"/>
      <point x="-54" y="780" type="curve" smooth="yes"/>
      <point x="-205.147887324" y="780.0"/>
      <point x="-298" y="826"/>
      <point x="-298" y="949" type="curve"/>
      <point x="-196" y="949" type="line"/>
      <point x="-196.0" y="884.0"/>
      <point x="-135.73255814" y="862.0"/>
      <point x="-54" y="862" type="curve" smooth="yes"/>
      <point x="90.3272727273" y="862.0"/>
      <point x="191.0" y="814.115942029"/>
      <point x="191" y="685" type="curve"/>
    </contour>
  </outline>
</glyph>
<glyph name="component_2" format="1">
  <advance width="630"/>
  <outline>
    <contour>
      <point x="840" y="676" type="line"/>
      <point x="797" y="780"/>
      <point x="756" y="865"/>
      <point x="623" y="865" type="curve" smooth="yes"/>
      <point x="572" y="865"/>
      <point x="533" y="855"/>
      <point x="490" y="836" type="curve"/>
      <point x="449" y="912" type="line"/>
      <point x="506" y="937"/>
      <point x="560" y="950"/>
      <point x="623" y="950" type="curve" smooth="yes"/>
      <point x="788" y="950"/>
      <point x="880" y="859"/>
      <point x="932" y="685" type="curve"/>
    </contour>
  </outline>
</glyph>
<glyph name="component_3" format="1">
  <advance width="630"/>
  <outline>
    <contour>
      <point x="833" y="641" type="line"/>
      <point x="769" y="721"/>
      <point x="691" y="741"/>
      <point x="604" y="741" type="curve" smooth="yes"/>
      <point x="538" y="741"/>
      <point x="479" y="719"/>
      <point x="433" y="685" type="curve"/>
      <point x="380" y="751" type="line"/>
      <point x="435" y="788"/>
      <point x="509" y="823"/>
      <point x="604" y="823" type="curve" smooth="yes"/>
      <point x="741" y="823"/>
      <point x="818" y="774"/>
      <point x="890" y="684" type="curve"/>
    </contour>
  </outline>
</glyph>
<glyph name="component_4" format="1">
  <advance width="630"/>
  <outline>
    <contour>
      <point x="974" y="983" type="line"/>
      <point x="974" y="848"/>
      <point x="894" y="797"/>
      <point x="761" y="797" type="curve" smooth="yes"/>
      <point x="628" y="797"/>
      <point x="552" y="847"/>
      <point x="552" y="983" type="curve"/>
      <point x="664" y="983" type="line"/>
      <point x="664" y="917"/>
      <point x="684" y="879"/>
      <point x="761" y="879" type="curve" smooth="yes"/>
      <point x="838" y="879"/>
      <point x="862" y="916"/>
      <point x="862" y="983" type="curve"/>
    </contour>
  </outline>
</glyph>
<glyph name="component_5" format="1">
  <advance width="630"/>
  <outline>
    <contour>
      <point x="283" y="-14" type="curve" smooth="yes"/>
      <point x="283.0" y="-49.3684210526"/>
      <point x="305.206896552" y="-70.0"/>
      <point x="339" y="-70" type="curve" smooth="yes"/>
      <point x="370.132075472" y="-70.0"/>
      <point x="394.0" y="-51.3333333333"/>
      <point x="394" y="-14" type="curve" smooth="yes"/>
      <point x="394.0" y="16.5555555556"/>
      <point x="370.132075472" y="41.0"/>
      <point x="339" y="41" type="curve" smooth="yes"/>
      <point x="305.206896552" y="41.0"/>
      <point x="283.0" y="17.5740740741"/>
    </contour>
  </outline>
</glyph>
<glyph name="component_6" format="1">
  <advance width="284"/>
  <outline>
    <contour>
      <point x="-10" y="685" type="line"/>
      <point x="294" y="685" type="line"/>
      <point x="294" y="603" type="line"/>
      <point x="-10" y="603" type="line"/>
    </contour>
  </outline>
</glyph>
